<svg xmlns="http://www.w3.org/2000/svg" xmlns:xlink="http://www.w3.org/1999/xlink" viewBox="0 0 581.56 115.05"><defs><style>.cls-1{fill:none;}.cls-2{isolation:isolate;}.cls-3{fill:#b8c400;}.cls-4{fill:#ffd400;}.cls-10,.cls-11,.cls-12,.cls-13,.cls-14,.cls-16,.cls-17,.cls-18,.cls-23,.cls-5,.cls-6,.cls-7,.cls-8,.cls-9{mix-blend-mode:multiply;}.cls-11,.cls-5{fill:url(#Neues_Verlaufsfeld_3);}.cls-12,.cls-6{fill:url(#Unbenannter_Verlauf_427);}.cls-7,.cls-8{fill:url(#Unbenannter_Verlauf_424);}.cls-8{opacity:0.3;}.cls-13,.cls-9{fill:url(#Neues_Verlaufsfeld_3-2);}.cls-10,.cls-14{fill:url(#Neues_Verlaufsfeld_3-3);}.cls-11,.cls-12,.cls-13,.cls-14,.cls-17{opacity:0.7;}.cls-15{fill:url(#Unbenannter_Verlauf_2);}.cls-16,.cls-17{fill:url(#Neues_Verlaufsfeld_3-8);}.cls-18{fill:url(#Unbenannter_Verlauf_82);}.cls-19{fill:url(#Unbenannter_Verlauf_67);}.cls-20{clip-path:url(#clip-path);}.cls-21{fill:url(#Neues_Verlaufsfeld_2);}.cls-22{fill:url(#Neues_Verlaufsfeld_5);}.cls-24{fill:url(#Unbenannter_Verlauf_6);}</style><linearGradient id="Neues_Verlaufsfeld_3" x1="171.69" y1="84.42" x2="171.69" y2="4.62" gradientUnits="userSpaceOnUse"><stop offset="0" stop-color="#fff"/><stop offset="1" stop-color="#b8c400"/></linearGradient><linearGradient id="Unbenannter_Verlauf_427" x1="214.79" y1="86" x2="168.46" y2="86" xlink:href="#Neues_Verlaufsfeld_3"/><linearGradient id="Unbenannter_Verlauf_424" x1="126.74" y1="-2.08" x2="126.74" y2="95.41" gradientUnits="userSpaceOnUse"><stop offset="0.15" stop-color="#fff"/><stop offset="0.21" stop-color="#fff9e7"/><stop offset="0.38" stop-color="#fee9a2"/><stop offset="0.54" stop-color="#fedc68"/><stop offset="0.69" stop-color="#fdd13b"/><stop offset="0.82" stop-color="#fdc91b"/><stop offset="0.93" stop-color="#fdc507"/><stop offset="1" stop-color="#fdc300"/></linearGradient><linearGradient id="Neues_Verlaufsfeld_3-2" x1="275.47" y1="84.42" x2="275.47" y2="4.62" xlink:href="#Neues_Verlaufsfeld_3"/><linearGradient id="Neues_Verlaufsfeld_3-3" x1="318.56" y1="86" x2="272.23" y2="86" xlink:href="#Neues_Verlaufsfeld_3"/><linearGradient id="Unbenannter_Verlauf_2" x1="-12147.17" y1="-7248.35" x2="-12242.62" y2="-7303.46" gradientTransform="translate(12598.65 7341.93)" gradientUnits="userSpaceOnUse"><stop offset="0" stop-color="#bddbed"/><stop offset="0.19" stop-color="#59b7cd"/><stop offset="0.33" stop-color="#19a0b9"/><stop offset="0.39" stop-color="#0097b1"/><stop offset="0.56" stop-color="#4eae68"/><stop offset="0.7" stop-color="#89c030"/><stop offset="0.81" stop-color="#aecb0d"/><stop offset="0.86" stop-color="#bccf00"/></linearGradient><linearGradient id="Neues_Verlaufsfeld_3-8" x1="378.72" y1="84.42" x2="378.72" y2="4.62" xlink:href="#Neues_Verlaufsfeld_3"/><linearGradient id="Unbenannter_Verlauf_82" x1="421.81" y1="86" x2="375.48" y2="86" gradientUnits="userSpaceOnUse"><stop offset="0" stop-color="#fff"/><stop offset="1" stop-color="#38adc6"/></linearGradient><linearGradient id="Unbenannter_Verlauf_67" x1="466.51" y1="57.53" x2="581.56" y2="57.53" gradientUnits="userSpaceOnUse"><stop offset="0" stop-color="#0092a6"/><stop offset="0.24" stop-color="#239eb4"/><stop offset="0.77" stop-color="#7abdd6"/><stop offset="1" stop-color="#a3cbe6"/></linearGradient><clipPath id="clip-path"><path class="cls-1" d="M471.38,46.21A42.09,42.09,0,0,0,494,83.54a42.12,42.12,0,0,1,59.28-51.13,42.11,42.11,0,0,0-81.9,13.8"/></clipPath><linearGradient id="Neues_Verlaufsfeld_2" x1="-4582.16" y1="1355.34" x2="-4580.3" y2="1355.34" gradientTransform="matrix(44.05, 0, 0, -44.05, 202323.07, 59749.67)" gradientUnits="userSpaceOnUse"><stop offset="0" stop-color="#ffd400"/><stop offset="0.15" stop-color="#dacc00"/><stop offset="0.27" stop-color="#c1c600"/><stop offset="0.35" stop-color="#b8c400"/><stop offset="0.45" stop-color="#9bbc1a"/><stop offset="0.83" stop-color="#2c9e7e"/><stop offset="1" stop-color="#0092a6"/></linearGradient><linearGradient id="Neues_Verlaufsfeld_5" x1="512.41" y1="107.91" x2="571.95" y2="48.36" gradientUnits="userSpaceOnUse"><stop offset="0" stop-color="#bddbed"/><stop offset="0.11" stop-color="#a1d0e2"/><stop offset="0.39" stop-color="#5cb6c9"/><stop offset="0.63" stop-color="#2aa2b6"/><stop offset="0.81" stop-color="#0c96aa"/><stop offset="0.91" stop-color="#0092a6"/></linearGradient><linearGradient id="Unbenannter_Verlauf_6" x1="17.6" y1="98.12" x2="36.2" y2="49.82" gradientUnits="userSpaceOnUse"><stop offset="0" stop-color="#fff"/><stop offset="0.1" stop-color="#fffef9"/><stop offset="0.22" stop-color="#fffae9"/><stop offset="0.36" stop-color="#fff3ce"/><stop offset="0.51" stop-color="#feeba8"/><stop offset="0.68" stop-color="#fedf77"/><stop offset="0.84" stop-color="#fdd13d"/><stop offset="1" stop-color="#fdc300"/></linearGradient></defs><g class="cls-2"><g id="Ebene_2" data-name="Ebene 2"><g id="Ebene_3" data-name="Ebene 3"><path class="cls-3" d="M243.11,42.22A53.45,53.45,0,0,0,224.85,14a43.46,43.46,0,0,0-24.48-9.84c-.53,0-5.4-.23-6.76-.23H158.93V113.11h34.24a52.79,52.79,0,0,0,9.85-.82c15.94-3,27.88-11.7,35.49-25.78C245.88,72.84,247.43,57.94,243.11,42.22Zm-26.5,31.34a26.11,26.11,0,0,1-12.09,12.71,19.33,19.33,0,0,1-8.46,2l-4.09,0h-5.14l-.47,0-1.91-.1V29.11h7.78l2.36,0h0l2.16.07a21.22,21.22,0,0,1,14.73,7,30.42,30.42,0,0,1,8,17A34.59,34.59,0,0,1,216.61,73.56Z"/><path class="cls-4" d="M121.35,4.14H114v109H139.4v-91A18,18,0,0,0,121.35,4.14Z"/><path class="cls-5" d="M169.86,29.1a10.93,10.93,0,0,1-10.93-10.92v94.93h25.52v-84H169.86Z"/><path class="cls-6" d="M219.92,58.89a33.85,33.85,0,0,1-3.31,14.67,26.11,26.11,0,0,1-12.09,12.71,19.33,19.33,0,0,1-8.46,2l-4.09,0h-5.14l-.47,0-1.91-.1v24.91h8.72a52.79,52.79,0,0,0,9.85-.82c15.94-3,27.88-11.7,35.49-25.78a56.74,56.74,0,0,0,7-27.62Z"/><path class="cls-7" d="M121.35,4.14h-7.26V72.42h7.36c9.33,0,17-8.32,18-19V22.19A18,18,0,0,0,121.35,4.14Z"/><path class="cls-8" d="M121.35,4.14h-7.26V72.42h7.36c9.33,0,17-8.32,18-19V22.19A18,18,0,0,0,121.35,4.14Z"/><path class="cls-3" d="M346.88,42.22A53.43,53.43,0,0,0,328.63,14a43.49,43.49,0,0,0-24.49-9.84c-.52,0-5.39-.23-6.75-.23H262.71V113.11H297a52.86,52.86,0,0,0,9.85-.82c15.94-3,27.88-11.7,35.48-25.78C349.66,72.84,351.21,57.94,346.88,42.22ZM320.39,73.56A26.16,26.16,0,0,1,308.3,86.27a19.41,19.41,0,0,1-8.47,2l-4.08,0H290.6l-.46,0-1.91-.1V29.11H296l2.37,0h0l2.15.07a21.23,21.23,0,0,1,14.74,7,30.42,30.42,0,0,1,8,17A34.67,34.67,0,0,1,320.39,73.56Z"/><path class="cls-9" d="M273.64,29.1a10.92,10.92,0,0,1-10.93-10.92v94.93h25.52v-84H273.64Z"/><path class="cls-10" d="M323.7,58.89a34,34,0,0,1-3.31,14.67A26.16,26.16,0,0,1,308.3,86.27a19.41,19.41,0,0,1-8.47,2l-4.08,0H290.6l-.46,0-1.91-.1v24.91H297a52.86,52.86,0,0,0,9.85-.82c15.94-3,27.88-11.7,35.48-25.78a56.63,56.63,0,0,0,7-27.62Z"/><path class="cls-11" d="M169.86,29.1a10.93,10.93,0,0,1-10.93-10.92v94.93h25.52v-84H169.86Z"/><path class="cls-12" d="M219.92,58.89a33.85,33.85,0,0,1-3.31,14.67,26.11,26.11,0,0,1-12.09,12.71,19.33,19.33,0,0,1-8.46,2l-4.09,0h-5.14l-.47,0-1.91-.1v24.91h8.72a52.79,52.79,0,0,0,9.85-.82c15.94-3,27.88-11.7,35.49-25.78a56.74,56.74,0,0,0,7-27.62Z"/><path class="cls-13" d="M273.64,29.1a10.92,10.92,0,0,1-10.93-10.92v94.93h25.52v-84H273.64Z"/><path class="cls-14" d="M323.7,58.89a34,34,0,0,1-3.31,14.67A26.16,26.16,0,0,1,308.3,86.27a19.41,19.41,0,0,1-8.47,2l-4.08,0H290.6l-.46,0-1.91-.1v24.91H297a52.86,52.86,0,0,0,9.85-.82c15.94-3,27.88-11.7,35.48-25.78a56.63,56.63,0,0,0,7-27.62Z"/><path class="cls-15" d="M450.14,42.22A53.45,53.45,0,0,0,431.88,14,43.49,43.49,0,0,0,407.4,4.18c-.53,0-5.4-.23-6.76-.23H366V113.11H400.2a52.86,52.86,0,0,0,9.85-.82c15.94-3,27.88-11.7,35.49-25.78C452.91,72.84,454.46,57.94,450.14,42.22Zm-26.5,31.34a26.11,26.11,0,0,1-12.09,12.71,19.36,19.36,0,0,1-8.46,2l-4.09,0h-5.14l-.47,0-1.91-.1V29.11h7.77l2.37,0h0l2.16.07a21.22,21.22,0,0,1,14.73,7,30.42,30.42,0,0,1,8,17A34.67,34.67,0,0,1,423.64,73.56Z"/><path class="cls-16" d="M376.89,29.1A10.92,10.92,0,0,1,366,18.18v94.93h25.52v-84H376.89Z"/><path class="cls-17" d="M376.89,29.1A10.92,10.92,0,0,1,366,18.18v94.93h25.52v-84H376.89Z"/><path class="cls-18" d="M427,58.89a34,34,0,0,1-3.31,14.67,26.11,26.11,0,0,1-12.09,12.71,19.36,19.36,0,0,1-8.46,2l-4.09,0h-5.14l-.47,0-1.91-.1v24.91h8.72a52.86,52.86,0,0,0,9.85-.82c15.94-3,27.88-11.7,35.49-25.78a56.73,56.73,0,0,0,7-27.62Z"/><path class="cls-18" d="M427,58.89a34,34,0,0,1-3.31,14.67,26.11,26.11,0,0,1-12.09,12.71,19.36,19.36,0,0,1-8.46,2l-4.09,0h-5.14l-.47,0-1.91-.1v24.91h8.72a52.86,52.86,0,0,0,9.85-.82c15.94-3,27.88-11.7,35.49-25.78a56.73,56.73,0,0,0,7-27.62Z"/><path class="cls-19" d="M524,0a57.53,57.53,0,1,0,57.53,57.53A57.52,57.52,0,0,0,524,0ZM513.39,88.32a41.9,41.9,0,0,1-19.49-4.78h0a42.12,42.12,0,0,1,59.28-51.13h0a42.12,42.12,0,0,1-39.79,55.91Z"/><g class="cls-20"><rect class="cls-21" x="471.38" y="4.09" width="81.91" height="79.45"/></g><path class="cls-22" d="M513.49,88.32A41.9,41.9,0,0,1,494,83.54a42.11,42.11,0,1,0,59.28-51.13,42.12,42.12,0,0,1-39.79,55.91"/><path class="cls-4" d="M27,113.11,51.54,43.35l24.51,69.76H103l-32.7-95.5s3,9.14-.12-.12-9.89-14-18.76-14c-9.66,0-15,5.36-19.43,16.66C29,27.67,11.49,79.21,0,113.11Z"/><g class="cls-23"><path class="cls-24" d="M0,113.11,18.9,57.45l5-14.21c1.52-4.34,2.42-7.15,2.42-7.15A14.11,14.11,0,0,1,38,28.52c3.88-.31,14.18,2.2,13.51,14.88l-2.37,7C45.1,61.48,34.54,92,27,113.11Z"/></g></g></g></g></svg>